<svg
								className="w-5 h-5"
								viewBox="0 0 24 24"
								fill="currentColor"
								xmlns="http://www.w3.org/2000/svg"
							>
								<path d="M12 0C5.37 0 0 5.37 0 12c0 5.3 3.438 9.8 8.205 11.385.6.113.82-.258.82-.577v-2.234c-3.338.725-4.033-1.61-4.033-1.61-.546-1.387-1.333-1.756-1.333-1.756-1.09-.746.083-.73.083-.73 1.205.085 1.84 1.238 1.84 1.238 1.07 1.834 2.807 1.304 3.492.997.108-.775.418-1.304.762-1.604-2.665-.303-5.467-1.334-5.467-5.933 0-1.31.468-2.382 1.236-3.222-.124-.303-.536-1.523.117-3.176 0 0 1.008-.322 3.3 1.23a11.49 11.49 0 013.003-.404c1.018.004 2.043.138 3.003.404 2.288-1.552 3.294-1.23 3.294-1.23.655 1.653.243 2.873.12 3.176.77.84 1.236 1.912 1.236 3.222 0 4.61-2.807 5.625-5.479 5.922.43.37.813 1.102.813 2.222v3.293c0 .32.218.694.825.576C20.565 21.796 24 17.298 24 12c0-6.63-5.37-12-12-12z" />
							</svg>
